<svg width="41" height="38" viewBox="0 0 41 38" fill="none" xmlns="http://www.w3.org/2000/svg">
<path d="M17.3369 1.48251C17.7057 1.04009 18.1631 0.679877 18.6797 0.425109C19.1962 0.17034 19.7604 0.0266732 20.3359 0.00337373C20.9114 -0.0199258 21.4854 0.0776596 22.0209 0.289836C22.5564 0.502012 23.0414 0.824068 23.4447 1.23523L23.6673 1.48251L31.7719 11.2048H37.9231C38.3555 11.2039 38.7833 11.2943 39.1784 11.4702C39.5734 11.6461 39.9269 11.9034 40.2156 12.2254C40.5043 12.5474 40.7217 12.9267 40.8536 13.3385C40.9856 13.7504 41.029 14.1854 40.9811 14.6152L40.7915 16.1937L40.5855 17.7186L40.4165 18.8602L40.2207 20.0863L39.9982 21.3742L39.7468 22.7096L39.4665 24.0717C39.3181 24.7586 39.1588 25.4448 38.9884 26.1303C38.5323 27.9396 37.9596 29.7176 37.274 31.453L36.8185 32.5658L36.3776 33.5714L35.9613 34.4657L35.7676 34.8655L35.2545 35.8752C34.5951 37.1323 33.3504 37.8741 32.0336 37.9813L31.7039 37.9936H9.28169C8.56128 37.999 7.85293 37.8086 7.2323 37.4428C6.61168 37.0769 6.10208 36.5494 5.75793 35.9165L5.27985 34.9891L4.90893 34.2267L4.71317 33.8043L4.30103 32.879C3.35992 30.6937 2.59637 28.4361 2.0178 26.1282C1.90593 25.6801 1.79877 25.2309 1.69633 24.7805L1.40372 23.4452L1.14201 22.1388L0.911214 20.8756L0.705146 19.6659L0.525867 18.5243L0.373377 17.4672L0.187916 16.0598L0.0519109 14.914L0.0168794 14.5987C-0.0257469 14.1939 0.0125575 13.7846 0.129564 13.3947C0.24657 13.0048 0.439943 12.6421 0.698432 12.3276C0.956922 12.0131 1.27537 11.7531 1.63524 11.5629C1.99512 11.3726 2.38924 11.2558 2.79467 11.2192L3.07493 11.2048H9.2343L17.3369 1.48251ZM36.7464 15.3262H4.24951L4.37728 16.3235L4.53389 17.4528L4.72347 18.6974L4.94602 20.0327C5.02845 20.4902 5.115 20.9587 5.20567 21.4381L5.50035 22.895C5.65696 23.6327 5.83005 24.3828 6.01552 25.1288C6.53847 27.2117 7.22757 29.2494 8.07619 31.2222L8.48009 32.131L8.85513 32.9223L9.19102 33.5879L9.33939 33.8723H31.6504L31.9677 33.2479L32.3324 32.4957L32.7322 31.6241C33.4885 29.924 34.354 27.6717 34.9887 25.1288C35.2463 24.0985 35.475 23.0516 35.679 22.0234L35.9675 20.5026L36.2148 19.0416L36.324 18.343L36.5197 17.0303L36.6784 15.8557L36.7464 15.3262ZM16.3519 21.1702L17.3822 27.3523C17.4542 27.8832 17.3165 28.4213 16.9984 28.8524C16.6803 29.2835 16.2068 29.5738 15.6783 29.6617C15.1498 29.7496 14.6078 29.6282 14.1673 29.3233C13.7268 29.0183 13.4224 28.5538 13.3186 28.0282L12.2882 21.8461C12.2348 21.5755 12.2362 21.2969 12.2924 21.0269C12.3487 20.7568 12.4585 20.5008 12.6155 20.274C12.7726 20.0472 12.9735 19.8543 13.2065 19.7066C13.4394 19.5589 13.6997 19.4594 13.9718 19.4142C14.2439 19.3689 14.5223 19.3788 14.7905 19.4431C15.0587 19.5074 15.3113 19.625 15.5333 19.7887C15.7552 19.9525 15.9421 20.1592 16.0827 20.3965C16.2233 20.6338 16.3148 20.8969 16.3519 21.1702ZM26.783 19.4475L27.0221 19.4743C27.5208 19.5566 27.972 19.8194 28.2896 20.2126C28.6072 20.6059 28.7692 21.1022 28.7448 21.6071L28.718 21.8461L27.6877 28.0282C27.6003 28.5457 27.3187 29.0103 26.9005 29.3273C26.4822 29.6443 25.9588 29.7897 25.4369 29.734C24.9151 29.6783 24.4342 29.4255 24.0923 29.0274C23.7504 28.6292 23.5734 28.1156 23.5972 27.5913L23.624 27.3523L24.6544 21.1702C24.7366 20.6722 24.9988 20.2217 25.3911 19.9041C25.7835 19.5866 26.2788 19.4241 26.783 19.4475ZM20.5021 4.12018L14.5982 11.2048H26.4059L20.5021 4.12018Z" fill="#EDE6DB"/>
</svg>
