<svg width="38" height="38" viewBox="0 0 38 38" fill="none" xmlns="http://www.w3.org/2000/svg">
<path fill-rule="evenodd" clip-rule="evenodd" d="M25.909 13.8181C25.909 15.6506 25.1811 17.4079 23.8854 18.7036C22.5897 19.9993 20.8323 20.7272 18.9999 20.7272C17.1675 20.7272 15.4102 19.9993 14.1144 18.7036C12.8187 17.4079 12.0908 15.6506 12.0908 13.8181C12.0908 11.9857 12.8187 10.2284 14.1144 8.93268C15.4102 7.63698 17.1675 6.90906 18.9999 6.90906C20.8323 6.90906 22.5897 7.63698 23.8854 8.93268C25.1811 10.2284 25.909 11.9857 25.909 13.8181ZM22.4545 13.8181C22.4545 14.7344 22.0905 15.613 21.4426 16.2609C20.7948 16.9087 19.9161 17.2727 18.9999 17.2727C18.0837 17.2727 17.205 16.9087 16.5572 16.2609C15.9093 15.613 15.5454 14.7344 15.5454 13.8181C15.5454 12.9019 15.9093 12.0233 16.5572 11.3754C17.205 10.7276 18.0837 10.3636 18.9999 10.3636C19.9161 10.3636 20.7948 10.7276 21.4426 11.3754C22.0905 12.0233 22.4545 12.9019 22.4545 13.8181Z" fill="#EDE6DB"/>
<path fill-rule="evenodd" clip-rule="evenodd" d="M19 0C8.50682 0 0 8.50682 0 19C0 29.4932 8.50682 38 19 38C29.4932 38 38 29.4932 38 19C38 8.50682 29.4932 0 19 0ZM3.45455 19C3.45455 22.61 4.68609 25.9333 6.75018 28.5725C8.20013 26.6693 10.0703 25.1269 12.2146 24.0656C14.359 23.0044 16.7197 22.453 19.1123 22.4545C21.4741 22.4518 23.8054 22.9884 25.9283 24.0236C28.0512 25.0587 29.9097 26.5649 31.3621 28.4275C32.8587 26.4646 33.8664 24.1736 34.3017 21.7439C34.7371 19.3143 34.5877 16.8159 33.8658 14.4555C33.1439 12.0951 31.8703 9.94054 30.1504 8.17006C28.4305 6.39959 26.3137 5.06412 23.9752 4.27415C21.6367 3.48418 19.1437 3.26242 16.7025 3.62723C14.2613 3.99203 11.942 4.9329 9.9366 6.372C7.9312 7.8111 6.29731 9.70705 5.17012 11.903C4.04294 14.0989 3.45486 16.5317 3.45455 19ZM19 34.5455C15.4313 34.5512 11.9702 33.3235 9.20291 31.0702C10.3167 29.4752 11.7993 28.173 13.5247 27.2744C15.25 26.3758 17.1669 25.9074 19.1123 25.9091C21.0333 25.9074 22.927 26.3641 24.6361 27.2414C26.3451 28.1186 27.8202 29.3909 28.9387 30.9527C26.15 33.2794 22.6318 34.5511 19 34.5455Z" fill="#EDE6DB"/>
</svg>
